<svg width="229" height="212" viewBox="0 0 229 212" fill="none" xmlns="http://www.w3.org/2000/svg">
<g clip-path="url(#clip0_1_837)" filter="url(#filter0_d_1_837)">
<path d="M160.637 186.487H59.8323C57.4383 186.485 55.1431 185.532 53.4506 183.839C51.7581 182.146 50.8065 179.85 50.8046 177.456V138.708C50.5959 138.946 50.3775 139.181 50.1526 139.409V177.456C50.1549 180.023 51.1754 182.484 52.9901 184.299C54.8048 186.115 57.2655 187.136 59.8323 187.139H160.92C160.822 186.924 160.728 186.706 160.637 186.487ZM50.8046 43.2635C50.8065 40.8695 51.7581 38.574 53.4506 36.8808C55.1431 35.1877 57.4383 34.2353 59.8323 34.2326H93.4196C93.3577 34.0141 93.299 33.7989 93.2436 33.5805H59.8323C57.2655 33.5837 54.8048 34.605 52.9901 36.4203C51.1754 38.2356 50.1549 40.6967 50.1526 43.2635V102.666C50.3775 102.894 50.5928 103.129 50.8046 103.367V43.2635ZM186.158 50.8795L165.097 34.1967C164.594 33.7981 163.971 33.5809 163.33 33.5805H144.586C144.534 33.7989 144.476 34.0174 144.414 34.2326H163.33C163.824 34.2338 164.304 34.4002 164.692 34.7053L185.754 51.3914C185.954 51.549 186.115 51.7502 186.226 51.9795C186.337 52.2088 186.394 52.4604 186.393 52.715V149.816C186.611 149.822 186.83 149.839 187.045 149.855V52.715C187.046 52.3619 186.967 52.013 186.813 51.695C186.66 51.377 186.436 51.0981 186.158 50.8795Z" fill="#3F3D56"/>
<path d="M185.88 51.7411H168.886C168.271 51.7411 167.663 51.6201 167.095 51.385C166.528 51.15 166.012 50.8054 165.578 50.371C165.144 49.9366 164.799 49.421 164.564 48.8534C164.329 48.2859 164.208 47.6776 164.208 47.0633V34.5115C164.208 34.4565 164.223 34.4027 164.252 34.3561C164.282 34.3096 164.323 34.2722 164.373 34.2483C164.422 34.2243 164.478 34.2149 164.532 34.2209C164.587 34.2269 164.639 34.2482 164.682 34.2823L186.062 51.2196C186.109 51.2573 186.144 51.3089 186.161 51.3671C186.178 51.4254 186.176 51.4875 186.156 51.5449C186.136 51.6022 186.099 51.6519 186.049 51.6871C186 51.7222 185.941 51.7411 185.88 51.7411Z" fill="#D3D3D3"/>
<path d="M185.88 52.0671H168.886C167.559 52.0656 166.287 51.5379 165.349 50.5998C164.411 49.6617 163.883 48.3898 163.882 47.0632V34.5115C163.882 34.3952 163.914 34.2814 163.976 34.1829C164.038 34.0844 164.126 34.0053 164.231 33.9547C164.335 33.9041 164.452 33.884 164.568 33.8967C164.683 33.9094 164.793 33.9544 164.884 34.0266L186.264 50.9641C186.364 51.0438 186.438 51.1528 186.474 51.2761C186.51 51.3994 186.506 51.5308 186.464 51.6521C186.422 51.7733 186.343 51.8784 186.238 51.9528C186.133 52.0272 186.008 52.0671 185.88 52.0671ZM164.534 34.581V47.0632C164.535 48.217 164.994 49.3231 165.81 50.139C166.626 50.9548 167.732 51.4137 168.886 51.415H185.783L164.534 34.581Z" fill="#3F3D56"/>
<path d="M152.145 73.3762H102.151C101.531 73.3762 100.936 73.1298 100.497 72.6912C100.058 72.2525 99.812 71.6576 99.812 71.0373C99.812 70.417 100.058 69.8221 100.497 69.3834C100.936 68.9448 101.531 68.6984 102.151 68.6984H152.145C152.766 68.6984 153.361 68.9448 153.799 69.3834C154.238 69.8221 154.484 70.417 154.484 71.0373C154.484 71.6576 154.238 72.2525 153.799 72.6912C153.361 73.1298 152.766 73.3762 152.145 73.3762Z" fill="#BCBCBC"/>
<path d="M161.793 81.2699H102.151C101.531 81.2699 100.936 81.0235 100.497 80.5849C100.058 80.1463 99.812 79.5513 99.812 78.931C99.812 78.3107 100.058 77.7158 100.497 77.2772C100.936 76.8385 101.531 76.5921 102.151 76.5921H161.793C162.414 76.5921 163.009 76.8385 163.447 77.2772C163.886 77.7158 164.132 78.3107 164.132 78.931C164.132 79.5513 163.886 80.1463 163.447 80.5849C163.009 81.0235 162.414 81.2699 161.793 81.2699H161.793Z" fill="#BCBCBC"/>
<path d="M152.145 108.752H102.151C101.531 108.752 100.936 108.506 100.497 108.067C100.058 107.628 99.812 107.034 99.812 106.413C99.812 105.793 100.058 105.198 100.497 104.759C100.936 104.321 101.531 104.074 102.151 104.074H152.145C152.766 104.074 153.361 104.321 153.799 104.759C154.238 105.198 154.484 105.793 154.484 106.413C154.484 107.034 154.238 107.628 153.799 108.067C153.361 108.506 152.766 108.752 152.145 108.752Z" fill="#BCBCBC"/>
<path d="M161.793 116.646H102.151C101.531 116.646 100.936 116.399 100.497 115.961C100.058 115.522 99.812 114.927 99.812 114.307C99.812 113.687 100.058 113.092 100.497 112.653C100.936 112.214 101.531 111.968 102.151 111.968H161.793C162.414 111.968 163.009 112.214 163.447 112.653C163.886 113.092 164.132 113.687 164.132 114.307C164.132 114.927 163.886 115.522 163.447 115.961C163.009 116.399 162.414 116.646 161.793 116.646H161.793Z" fill="#BCBCBC"/>
<path d="M152.145 144.128H102.151C101.844 144.128 101.54 144.068 101.256 143.95C100.972 143.832 100.714 143.66 100.497 143.443C100.28 143.226 100.108 142.968 99.99 142.684C99.8725 142.4 99.812 142.096 99.812 141.789C99.812 141.482 99.8725 141.178 99.99 140.894C100.108 140.61 100.28 140.352 100.497 140.135C100.714 139.918 100.972 139.746 101.256 139.628C101.54 139.511 101.844 139.45 102.151 139.45H152.145C152.766 139.45 153.361 139.697 153.799 140.135C154.238 140.574 154.484 141.169 154.484 141.789C154.484 142.409 154.238 143.004 153.799 143.443C153.361 143.882 152.766 144.128 152.145 144.128Z" fill="#BCBCBC"/>
<path d="M161.793 152.022H102.151C101.844 152.022 101.54 151.962 101.256 151.844C100.972 151.727 100.714 151.554 100.497 151.337C100.28 151.12 100.108 150.862 99.99 150.578C99.8725 150.295 99.812 149.99 99.812 149.683C99.812 149.376 99.8725 149.072 99.99 148.788C100.108 148.504 100.28 148.247 100.497 148.029C100.714 147.812 100.972 147.64 101.256 147.522C101.54 147.405 101.844 147.344 102.151 147.344H161.793C162.1 147.344 162.405 147.405 162.688 147.522C162.972 147.64 163.23 147.812 163.447 148.029C163.664 148.247 163.837 148.504 163.954 148.788C164.072 149.072 164.132 149.376 164.132 149.683C164.132 149.99 164.072 150.295 163.954 150.578C163.837 150.862 163.664 151.12 163.447 151.337C163.23 151.554 162.972 151.727 162.688 151.844C162.405 151.962 162.1 152.022 161.793 152.022H161.793Z" fill="#BCBCBC"/>
<path d="M81.332 83.2509C85.8976 83.2509 89.5988 79.5497 89.5988 74.9841C89.5988 70.4185 85.8976 66.7173 81.332 66.7173C76.7664 66.7173 73.0652 70.4185 73.0652 74.9841C73.0652 79.5497 76.7664 83.2509 81.332 83.2509Z" fill="#E2C703"/>
<path d="M80.5128 78.1375C80.3268 78.1378 80.1458 78.0777 79.997 77.9661L79.9877 77.9592L78.045 76.473C77.9548 76.4041 77.8791 76.3181 77.8222 76.2199C77.7653 76.1217 77.7283 76.0132 77.7133 75.9007C77.6984 75.7882 77.7058 75.6739 77.7351 75.5642C77.7643 75.4546 77.8149 75.3518 77.884 75.2617C77.953 75.1716 78.0392 75.0961 78.1375 75.0393C78.2357 74.9826 78.3443 74.9457 78.4568 74.931C78.5693 74.9162 78.6836 74.9238 78.7932 74.9532C78.9028 74.9827 79.0056 75.0334 79.0955 75.1026L80.3539 76.0676L83.3276 72.1882C83.3965 72.0982 83.4825 72.0227 83.5806 71.966C83.6788 71.9093 83.7871 71.8725 83.8995 71.8577C84.0118 71.8428 84.126 71.8502 84.2355 71.8795C84.345 71.9088 84.4476 71.9594 84.5375 72.0283L84.5378 72.0285L84.5193 72.0542L84.5383 72.0285C84.7197 72.168 84.8385 72.3737 84.8684 72.6006C84.8983 72.8275 84.837 73.057 84.6979 73.2388L81.2003 77.7998C81.1193 77.9049 81.0153 77.9899 80.8962 78.0483C80.7771 78.1067 80.6462 78.1369 80.5135 78.1365L80.5128 78.1375Z" fill="white"/>
<path d="M81.332 118.627C85.8976 118.627 89.5988 114.926 89.5988 110.36C89.5988 105.794 85.8976 102.093 81.332 102.093C76.7664 102.093 73.0652 105.794 73.0652 110.36C73.0652 114.926 76.7664 118.627 81.332 118.627Z" fill="#D3D3D3"/>
<path d="M80.5127 113.514C80.3267 113.514 80.1457 113.454 79.9969 113.342L79.9877 113.335L78.0449 111.849C77.8631 111.71 77.7442 111.504 77.7142 111.277C77.6842 111.05 77.7457 110.82 77.885 110.639C78.0243 110.457 78.2301 110.338 78.4571 110.308C78.6841 110.278 78.9137 110.34 79.0954 110.479L80.3538 111.444L83.3275 107.564C83.3964 107.474 83.4824 107.399 83.5806 107.342C83.6787 107.286 83.787 107.249 83.8994 107.234C84.0117 107.219 84.1259 107.227 84.2354 107.256C84.3449 107.285 84.4475 107.336 84.5375 107.405L84.5377 107.405L84.5193 107.43L84.5382 107.405C84.7197 107.544 84.8384 107.75 84.8683 107.977C84.8982 108.204 84.8369 108.433 84.6979 108.615L81.2002 113.176C81.1193 113.281 81.0152 113.366 80.8961 113.425C80.777 113.483 80.6461 113.513 80.5135 113.513L80.5127 113.514Z" fill="white"/>
<path d="M81.332 154.003C85.8976 154.003 89.5988 150.302 89.5988 145.736C89.5988 141.171 85.8976 137.469 81.332 137.469C76.7664 137.469 73.0652 141.171 73.0652 145.736C73.0652 150.302 76.7664 154.003 81.332 154.003Z" fill="#D3D3D3"/>
<path d="M80.5128 148.89C80.3268 148.89 80.1458 148.83 79.997 148.718L79.9877 148.711L78.045 147.225C77.9548 147.156 77.8791 147.07 77.8222 146.972C77.7653 146.874 77.7283 146.765 77.7133 146.653C77.6984 146.54 77.7058 146.426 77.7351 146.316C77.7643 146.207 77.8149 146.104 77.884 146.014C77.953 145.924 78.0392 145.848 78.1375 145.792C78.2357 145.735 78.3443 145.698 78.4568 145.683C78.5693 145.668 78.6836 145.676 78.7932 145.705C78.9028 145.735 79.0056 145.786 79.0955 145.855L80.3539 146.82L83.3276 142.94C83.3965 142.85 83.4825 142.775 83.5806 142.718C83.6788 142.662 83.7871 142.625 83.8995 142.61C84.0118 142.595 84.126 142.602 84.2355 142.632C84.345 142.661 84.4476 142.712 84.5375 142.781L84.5378 142.781L84.5193 142.806L84.5383 142.781C84.7197 142.92 84.8385 143.126 84.8684 143.353C84.8983 143.58 84.837 143.809 84.6979 143.991L81.2003 148.552C81.1193 148.657 81.0153 148.742 80.8962 148.801C80.7771 148.859 80.6462 148.889 80.5135 148.889L80.5128 148.89Z" fill="white"/>
<path d="M197.561 200.286C197.095 200.53 196.62 200.761 196.138 200.979C195.698 201.177 195.252 201.364 194.799 201.538C194.633 201.601 194.465 201.665 194.296 201.728C192.964 202.211 191.595 202.588 190.203 202.856C189.514 202.992 188.816 203.098 188.109 203.175C187.525 203.242 186.935 203.289 186.339 203.317C185.915 203.338 185.491 203.347 185.063 203.347C183.371 203.348 181.682 203.189 180.02 202.874C179.586 202.796 179.162 202.703 178.738 202.601C176.685 202.109 174.698 201.375 172.818 200.416C172.65 200.332 172.481 200.241 172.313 200.154C172.063 200.022 171.819 199.883 171.575 199.739C171.693 199.576 171.819 199.417 171.949 199.26C173.357 197.515 175.117 196.086 177.114 195.067C179.111 194.048 181.301 193.461 183.54 193.344C185.78 193.228 188.019 193.585 190.111 194.391C192.203 195.198 194.102 196.437 195.683 198.026C196.232 198.577 196.741 199.167 197.206 199.79C197.329 199.952 197.447 200.118 197.561 200.286Z" fill="#E2C703"/>
<path d="M185.664 187.067C192.962 187.067 198.878 181.151 198.878 173.853C198.878 166.555 192.962 160.639 185.664 160.639C178.366 160.639 172.45 166.555 172.45 173.853C172.45 181.151 178.366 187.067 185.664 187.067Z" fill="#2F2E41"/>
<path d="M189.179 187.085C193.945 184.48 195.696 178.505 193.091 173.739C190.486 168.972 184.51 167.221 179.744 169.826C174.978 172.432 173.226 178.407 175.832 183.173C178.437 187.939 184.413 189.691 189.179 187.085Z" fill="#A0616A"/>
<path d="M194.796 172.27C192.548 173.819 189.881 174.643 187.151 174.632C188.125 175.308 189.233 175.764 190.4 175.969C186.771 176.748 183.02 176.769 179.383 176.031C178.574 175.901 177.794 175.633 177.077 175.239C176.719 175.039 176.407 174.766 176.162 174.438C175.917 174.11 175.743 173.734 175.653 173.335C175.411 171.954 176.487 170.7 177.605 169.854C179.317 168.579 181.291 167.701 183.385 167.283C185.478 166.864 187.638 166.917 189.708 167.436C191.06 167.785 192.414 168.375 193.292 169.461C194.171 170.547 194.431 172.221 193.594 173.339L194.796 172.27Z" fill="#2F2E41"/>
<path d="M187.045 149.249C186.83 149.232 186.611 149.219 186.393 149.209C185.953 149.187 185.509 149.177 185.063 149.177C180.621 149.177 176.248 150.269 172.328 152.358C168.409 154.446 165.063 157.466 162.585 161.152C160.108 164.838 158.575 169.077 158.121 173.495C157.668 177.913 158.308 182.375 159.985 186.487C160.073 186.706 160.164 186.924 160.262 187.139C162.502 192.215 166.237 196.487 170.968 199.385L171.141 199.486C171.288 199.574 171.431 199.659 171.575 199.737C171.819 199.884 172.064 200.021 172.312 200.154C172.481 200.242 172.651 200.33 172.817 200.415C174.697 201.375 176.685 202.108 178.738 202.6C179.161 202.704 179.585 202.795 180.019 202.873C181.682 203.188 183.37 203.347 185.063 203.346C185.49 203.346 185.914 203.336 186.341 203.317C186.934 203.291 187.524 203.242 188.108 203.177C188.815 203.098 189.514 202.992 190.204 202.857C191.595 202.588 192.963 202.211 194.296 201.729C194.465 201.664 194.635 201.602 194.798 201.537C195.254 201.364 195.698 201.178 196.138 200.979C196.62 200.761 197.095 200.529 197.562 200.285C202.247 197.83 206.118 194.071 208.709 189.461C208.721 189.436 208.734 189.412 208.748 189.389C210.954 185.413 212.124 180.946 212.148 176.4C212.173 171.853 211.053 167.374 208.89 163.374C206.728 159.375 203.593 155.985 199.775 153.516C195.957 151.047 191.579 149.58 187.045 149.249L187.045 149.249ZM211.08 181.232C210.556 183.967 209.602 186.601 208.253 189.037C208.23 189.079 208.207 189.122 208.184 189.161C205.647 193.703 201.829 197.4 197.207 199.789C196.744 200.031 196.276 200.257 195.802 200.467C195.407 200.643 195.003 200.813 194.596 200.969C194.426 201.035 194.25 201.103 194.077 201.162C192.926 201.582 191.746 201.92 190.546 202.173C189.657 202.363 188.758 202.504 187.853 202.596C187.296 202.658 186.732 202.701 186.161 202.72C185.796 202.737 185.431 202.746 185.063 202.746C183.425 202.747 181.791 202.594 180.182 202.29C179.203 202.11 178.235 201.873 177.284 201.579C175.834 201.132 174.426 200.562 173.074 199.874C172.918 199.793 172.761 199.711 172.608 199.626C172.387 199.509 172.165 199.388 171.95 199.261C171.787 199.17 171.624 199.072 171.464 198.977C171.369 198.922 171.278 198.867 171.184 198.808C166.68 196.024 163.107 191.962 160.92 187.139C160.822 186.924 160.728 186.706 160.637 186.487C158.952 182.463 158.288 178.084 158.703 173.741C159.118 169.397 160.601 165.224 163.018 161.591C165.435 157.959 168.712 154.98 172.558 152.919C176.404 150.859 180.699 149.78 185.063 149.78C185.509 149.78 185.953 149.79 186.393 149.816C186.611 149.822 186.83 149.839 187.045 149.855C190.765 150.137 194.384 151.201 197.664 152.978C200.945 154.755 203.813 157.204 206.082 160.166C208.351 163.128 209.969 166.535 210.83 170.165C211.691 173.795 211.776 177.567 211.08 181.232L211.08 181.232Z" fill="#3F3D56"/>
<path d="M178.973 160.821C178.83 159.326 176.999 158.406 175.567 158.857C174.134 159.309 173.194 160.751 172.91 162.226C172.773 162.847 172.76 163.489 172.872 164.115C172.984 164.741 173.218 165.339 173.561 165.874C174.285 166.916 175.616 167.566 176.857 167.302C178.273 167 179.254 165.616 179.535 164.196C179.816 162.775 179.537 161.31 179.259 159.889L178.973 160.821Z" fill="#2F2E41"/>
<path d="M199.13 162.957C198.988 161.462 197.156 160.542 195.724 160.993C194.292 161.445 193.351 162.887 193.067 164.362C192.93 164.983 192.917 165.625 193.029 166.251C193.141 166.877 193.375 167.474 193.719 168.01C194.443 169.052 195.773 169.702 197.014 169.437C198.43 169.135 199.412 167.752 199.693 166.331C199.973 164.911 199.695 163.446 199.416 162.024L199.13 162.957Z" fill="#2F2E41"/>
<path d="M133.361 49.6361C129.169 52.3207 124.311 53.7846 119.334 53.8638C114.356 53.943 109.454 52.6343 105.178 50.0845C105.931 48.6843 106.884 47.4018 108.007 46.2776C109.741 44.5356 111.851 43.2142 114.175 42.415C116.499 41.6157 118.976 41.3598 121.414 41.667C123.853 41.9741 126.188 42.8362 128.242 44.1869C130.295 45.5376 132.011 47.341 133.259 49.4585C133.292 49.5157 133.328 49.5759 133.361 49.6361Z" fill="#E2C703"/>
<path d="M118.093 35.2451C125.44 35.2451 131.395 29.2897 131.395 21.9433C131.395 14.5969 125.44 8.64148 118.093 8.64148C110.747 8.64148 104.792 14.5969 104.792 21.9433C104.792 29.2897 110.747 35.2451 118.093 35.2451Z" fill="#2F2E41"/>
<path d="M126.687 31.3259C129.31 26.5282 127.547 20.5128 122.749 17.8902C117.951 15.2675 111.936 17.0307 109.313 21.8284C106.691 26.6261 108.454 32.6415 113.251 35.2641C118.049 37.8868 124.064 36.1235 126.687 31.3259Z" fill="#FFB8B8"/>
<path d="M108.901 20.3497C111.164 21.909 113.849 22.7388 116.597 22.7279C115.616 23.4075 114.501 23.8665 113.326 24.0734C116.979 24.857 120.755 24.8782 124.417 24.1357C125.23 24.0052 126.016 23.7354 126.738 23.3383C127.098 23.1373 127.412 22.8627 127.659 22.5325C127.906 22.2023 128.08 21.8239 128.171 21.4217C128.415 20.0317 127.331 18.7688 126.206 17.9177C124.482 16.6344 122.495 15.7503 120.388 15.3293C118.281 14.9082 116.107 14.9608 114.023 15.4832C112.662 15.835 111.299 16.4293 110.415 17.5222C109.531 18.6152 109.269 20.3001 110.111 21.4255L108.901 20.3497Z" fill="#2F2E41"/>
<path d="M118.908 0C111.728 0.00798401 104.843 2.86383 99.7654 7.94107C94.6876 13.0183 91.8309 19.9023 91.822 27.0831C91.8231 29.2736 92.0925 31.4558 92.6241 33.5808C92.6795 33.7992 92.7348 34.0177 92.7936 34.2329C94.3559 39.961 97.7591 45.0161 102.478 48.6189C107.198 52.2217 112.971 54.1721 118.908 54.1694C124.847 54.1693 130.621 52.2181 135.342 48.616C140.064 45.0139 143.471 39.9604 145.039 34.2329C145.098 34.0144 145.154 33.7992 145.206 33.5808C146.188 29.5911 146.25 25.4303 145.388 21.413C144.525 17.3958 142.761 13.6272 140.227 10.3923C137.694 7.15732 134.458 4.54073 130.765 2.74033C127.072 0.939938 123.017 0.00287443 118.908 0ZM144.586 33.5808C144.534 33.7992 144.475 34.0177 144.413 34.2329C143.313 38.1505 141.326 41.7621 138.605 44.7877C135.884 47.8133 132.503 50.1715 128.723 51.6795C124.944 53.1875 120.868 53.8048 116.812 53.4835C112.755 53.1622 108.827 51.9109 105.333 49.8267C99.5242 46.3315 95.2646 40.7558 93.4195 34.2329C93.3576 34.0144 93.2989 33.7992 93.2435 33.5808C92.7002 31.4576 92.4253 29.2747 92.4252 27.0831C92.4294 23.3316 93.2307 19.6239 94.7758 16.2054C96.321 12.7869 98.5749 9.7358 101.388 7.25406C104.201 4.77231 107.51 2.91662 111.094 1.80989C114.679 0.703159 118.458 0.370653 122.18 0.83439C125.903 1.29813 129.485 2.54752 132.688 4.49983C135.891 6.45213 138.644 9.06279 140.762 12.1589C142.88 15.255 144.317 18.7658 144.976 22.4589C145.635 26.152 145.503 29.943 144.586 33.5808H144.586Z" fill="#3F3D56"/>
<path d="M45.5392 143.575C41.3469 146.26 36.4898 147.724 31.5122 147.804C26.5346 147.883 21.6332 146.575 17.3574 144.025C17.403 143.937 17.4518 143.849 17.504 143.765C18.8756 141.292 20.8744 139.225 23.2991 137.771C25.7239 136.317 28.4889 135.528 31.3159 135.482C34.1428 135.437 36.9317 136.137 39.4018 137.513C41.8719 138.889 43.9359 140.891 45.3859 143.318C45.4055 143.344 45.4217 143.373 45.4381 143.399C45.4707 143.455 45.5066 143.517 45.5392 143.575Z" fill="#E2C703"/>
<path d="M43.5737 115.883C43.5737 118.514 42.7935 121.085 41.3319 123.273C39.8702 125.46 37.7928 127.165 35.3622 128.172C32.9316 129.179 30.257 129.442 27.6767 128.929C25.0964 128.416 22.7263 127.149 20.866 125.289C19.0057 123.428 17.7388 121.058 17.2256 118.478C16.7123 115.898 16.9757 113.223 17.9825 110.792C18.9893 108.362 20.6942 106.284 22.8817 104.823C25.0692 103.361 27.641 102.581 30.2718 102.581C32.021 102.573 33.7545 102.911 35.3721 103.576C36.9897 104.242 38.4595 105.221 39.6963 106.458C40.9332 107.695 41.9127 109.165 42.5782 110.783C43.2437 112.4 43.582 114.134 43.5737 115.883Z" fill="#2F2E41"/>
<path d="M40.6945 124.148C40.5423 124.531 40.367 124.904 40.1697 125.266C38.9101 127.57 36.787 129.279 34.2674 130.018C31.7479 130.756 29.0381 130.464 26.7341 129.204C25.5923 128.581 24.5846 127.739 23.7684 126.727C22.9521 125.714 22.3435 124.55 21.9772 123.302C21.6108 122.054 21.494 120.746 21.6334 119.453C21.7728 118.16 22.1657 116.907 22.7896 115.766C23.4134 114.624 24.2561 113.617 25.2694 112.802C26.2827 111.986 27.4467 111.378 28.695 111.013C29.9433 110.647 31.2514 110.531 32.5445 110.672C33.8376 110.812 35.0904 111.206 36.2312 111.83C38.3477 112.988 39.9689 114.878 40.7907 117.146C41.6125 119.413 41.5783 121.903 40.6945 124.148Z" fill="#A0616A"/>
<path d="M50.8048 102.483C50.5961 102.255 50.3777 102.03 50.1527 101.812C46.53 98.2214 41.9667 95.7277 36.9885 94.6179C32.0104 93.5081 26.8199 93.8273 22.0153 95.5387C17.2106 97.2501 12.9873 100.284 9.83176 104.291C6.67626 108.298 4.71705 113.115 4.17987 118.187C3.64268 123.259 4.54938 128.38 6.79549 132.959C9.0416 137.538 12.5357 141.39 16.8753 144.07C21.2148 146.75 26.2233 148.149 31.3234 148.107C36.4236 148.064 41.4081 146.582 45.7025 143.83C47.3063 142.801 48.7978 141.606 50.1527 140.266C50.3745 140.048 50.5929 139.826 50.8048 139.598C55.5352 134.577 58.1697 127.939 58.1697 121.041C58.1697 114.142 55.5352 107.504 50.8048 102.483V102.483ZM50.1527 139.409C48.7209 140.893 47.1213 142.204 45.3862 143.318C45.383 143.321 45.3796 143.321 45.3764 143.325C41.2309 145.979 36.4283 147.426 31.5066 147.504C26.5849 147.583 21.7387 146.289 17.5108 143.768C17.5077 143.768 17.5077 143.765 17.5043 143.765C14.2617 141.831 11.4701 139.226 9.31669 136.126C7.16325 133.025 5.69779 129.499 5.0186 125.785C4.3394 122.071 4.46217 118.255 5.37867 114.593C6.29517 110.931 7.98421 107.507 10.3325 104.55C12.6808 101.594 15.6341 99.1745 18.9943 97.4533C22.3544 95.732 26.0438 94.7492 29.8149 94.5708C33.586 94.3923 37.3517 95.0222 40.8594 96.4184C44.3671 97.8146 47.5357 99.9446 50.1527 102.666C50.3777 102.894 50.5929 103.129 50.8048 103.367C55.1587 108.223 57.5665 114.515 57.5665 121.037C57.5665 127.559 55.1587 133.852 50.8048 138.708C50.5961 138.946 50.3777 139.181 50.1527 139.409Z" fill="#3F3D56"/>
<path d="M41.0524 104.836C40.3971 103.724 39.4472 102.814 38.3075 102.208C37.1678 101.602 35.8827 101.322 34.5941 101.4C33.2416 101.501 31.9547 102 30.6911 102.493L24.2669 104.999C22.6045 105.647 20.7839 106.441 20.0625 108.073C19.393 109.588 19.8925 111.338 20.3982 112.915L22.8017 120.411C23.1311 118.727 23.4656 117.026 24.1638 115.459C24.8619 113.892 25.9662 112.446 27.4928 111.663C29.1615 110.807 31.1283 110.825 33.0016 110.915C35.6547 111.043 38.5394 111.38 40.4244 113.252C41.425 114.314 42.1034 115.639 42.3807 117.072C42.6536 118.498 42.791 119.946 42.791 121.397C43.8789 119.527 44.7954 117.562 45.5291 115.527C46.1327 114.012 46.4766 112.405 46.5465 110.775C46.5609 109.148 46.1001 107.469 45.0147 106.256C43.9294 105.043 42.1609 104.388 40.6057 104.868" fill="#2F2E41"/>
<path d="M20.7948 69.0663L20.1428 69.0587C20.1506 68.4066 20.1694 67.7448 20.1987 67.092L20.8501 67.1213C20.8211 67.7669 20.8025 68.4214 20.7948 69.0663Z" fill="#D3D3D3"/>
<path d="M21.1363 63.3979L20.488 63.3272C20.6242 62.0809 20.8025 60.8239 21.018 59.5912L21.6603 59.7036C21.4472 60.9224 21.2709 62.1654 21.1363 63.3979ZM22.4215 56.0506L21.7878 55.8972C22.0829 54.6795 22.4218 53.456 22.795 52.2603L23.4175 52.4545C23.0484 53.6368 22.7133 54.8468 22.4215 56.0506ZM24.6458 48.9264L24.0373 48.6921C24.4876 47.5224 24.9824 46.3518 25.5078 45.2129L26.0999 45.4861C25.5803 46.6123 25.0911 47.7697 24.6458 48.9264ZM27.7731 42.1474L27.1999 41.8366C27.7969 40.7356 28.4381 39.6389 29.1058 38.577L29.6578 38.924C28.9975 39.9742 28.3635 41.0586 27.7731 42.1474L27.7731 42.1474ZM31.7454 35.8288L31.2168 35.4471C31.9504 34.4313 32.7266 33.426 33.5238 32.4592L34.0269 32.874C33.2385 33.8302 32.4709 34.8242 31.7454 35.8288V35.8288ZM36.4924 30.0716L36.0169 29.6256C36.8736 28.7124 37.7715 27.8147 38.6857 26.9572L39.1317 27.4328C38.2277 28.2809 37.3396 29.1687 36.4924 30.0716V30.0716ZM41.9338 24.9682L41.519 24.4651C42.4856 23.6682 43.4904 22.8925 44.5056 22.1596L44.8873 22.6881C43.8834 23.4131 42.8897 24.1802 41.9338 24.9682V24.9682ZM47.9803 20.6023L47.6332 20.0503C48.6938 19.3836 49.7893 18.7431 50.8894 18.1466L51.2002 18.7197C50.1124 19.3097 49.029 19.943 47.9803 20.6023V20.6023ZM54.5338 17.049L54.2606 16.4568C55.3969 15.9326 56.5652 15.4386 57.7331 14.9886L57.9675 15.597C56.8126 16.0419 55.6574 16.5305 54.5338 17.049V17.049ZM61.4868 14.3704L61.2922 13.748C62.4874 13.3743 63.7108 13.0349 64.9287 12.7393L65.0824 13.3729C63.8783 13.6654 62.6686 14.0009 61.4868 14.3704V14.3704ZM68.735 12.6102L68.6225 11.968C69.8549 11.752 71.1117 11.5732 72.3582 11.4366L72.4292 12.0849C71.1966 12.2199 69.9537 12.3967 68.735 12.6102V12.6102Z" fill="#D3D3D3"/>
<path d="M76.175 11.7961L76.1458 11.1447C76.7989 11.1154 77.4605 11.0966 78.1124 11.0888L78.1202 11.7408C77.4754 11.7485 76.821 11.7671 76.175 11.7961Z" fill="#D3D3D3"/>
<path d="M23.2028 66.9704L22.7369 66.5136L20.4893 68.8124L18.3603 66.4027L17.8716 66.8354L20.4651 69.7696L23.2028 66.9704Z" fill="#D3D3D3"/>
<path d="M76.0244 14.1492L75.5676 13.6833L77.8665 11.4356L75.4568 9.30668L75.8894 8.81796L78.8237 11.4115L76.0244 14.1492Z" fill="#D3D3D3"/>
<path d="M173.575 18.2433C173.001 17.9413 172.423 17.6445 171.841 17.3529L172.132 16.7699C172.719 17.0633 173.301 17.3621 173.879 17.6662L173.575 18.2433Z" fill="#D3D3D3"/>
<path d="M217.884 138.589L217.28 138.341C217.771 137.144 218.243 135.923 218.683 134.712L219.296 134.934C218.853 136.154 218.378 137.384 217.884 138.589ZM220.557 131.225L219.936 131.028C220.326 129.797 220.697 128.541 221.037 127.296L221.666 127.467C221.324 128.721 220.951 129.985 220.557 131.225ZM222.619 123.667L221.983 123.521C222.272 122.261 222.538 120.979 222.774 119.711L223.415 119.83C223.177 121.107 222.909 122.398 222.619 123.667V123.667ZM224.052 115.964L223.406 115.871C223.59 114.592 223.749 113.293 223.88 112.008L224.529 112.074C224.397 113.368 224.237 114.676 224.052 115.964V115.964ZM224.845 108.168L224.194 108.129C224.272 106.84 224.324 105.532 224.348 104.24L225 104.252C224.975 105.553 224.923 106.87 224.845 108.168ZM224.994 100.333L224.342 100.348C224.33 99.7805 224.312 99.2138 224.29 98.6477C224.26 97.9218 224.222 97.1851 224.176 96.4586L224.827 96.4175C224.873 97.149 224.912 97.8906 224.941 98.6216C224.964 99.1916 224.982 99.7621 224.994 100.333L224.994 100.333ZM223.852 92.5818C223.718 91.2971 223.555 89.9982 223.369 88.721L224.014 88.6267C224.202 89.9127 224.365 91.2205 224.5 92.5141L223.852 92.5818ZM222.728 84.8825C222.49 83.6141 222.222 82.3324 221.932 81.0732L222.567 80.9266C222.859 82.1946 223.129 83.485 223.369 84.7622L222.728 84.8825ZM220.981 77.299C220.64 76.0523 220.268 74.7966 219.877 73.5664L220.498 73.3688C220.892 74.6073 221.266 75.8717 221.61 77.127L220.981 77.299ZM218.622 69.8817C218.181 68.6673 217.708 67.4456 217.218 66.2504L217.821 66.0029C218.315 67.2064 218.791 68.4364 219.235 69.6589L218.622 69.8817ZM215.668 62.679C215.129 61.5043 214.559 60.3249 213.973 59.1735L214.554 58.8778C215.144 60.0369 215.718 61.2243 216.26 62.4071L215.668 62.679ZM212.136 55.7397C211.503 54.6132 210.839 53.4841 210.16 52.3839L210.715 52.0418C211.398 53.1494 212.068 54.2863 212.705 55.4206L212.136 55.7397ZM208.049 49.1114C207.326 48.0396 206.571 46.9685 205.805 45.9278L206.33 45.5413C207.101 46.5891 207.862 47.6677 208.59 48.7469L208.049 49.1114ZM203.432 42.8387C202.623 41.8291 201.782 40.8235 200.933 39.8498L201.425 39.4213C202.279 40.4018 203.126 41.4143 203.941 42.4308L203.432 42.8387ZM198.313 36.966C197.423 36.0263 196.502 35.0932 195.576 34.1924L196.031 33.7249C196.963 34.6319 197.891 35.5715 198.787 36.5175L198.313 36.966ZM192.726 31.5337C191.762 30.6709 190.767 29.8166 189.768 28.9947L190.183 28.4912C191.188 29.3189 192.19 30.1791 193.161 31.0479L192.726 31.5337ZM186.708 26.5795C185.68 25.8018 184.619 25.0335 183.556 24.296L183.927 23.7602C184.998 24.5027 186.066 25.2764 187.101 26.0594L186.708 26.5795ZM180.313 22.1439C179.224 21.4532 178.105 20.7742 176.984 20.1256L177.311 19.5612C178.439 20.2142 179.567 20.898 180.662 21.5934L180.313 22.1439Z" fill="#D3D3D3"/>
<path d="M215.487 143.965L214.9 143.681C215.183 143.095 215.46 142.507 215.73 141.917L216.322 142.188C216.051 142.782 215.772 143.374 215.487 143.965Z" fill="#D3D3D3"/>
<path d="M172.658 20.4395L173.273 20.2227L172.201 17.1916L175.303 16.3439L175.13 15.7147L171.353 16.7475L172.658 20.4395Z" fill="#D3D3D3"/>
<path d="M213.661 140.738L214.281 140.534L215.284 143.588L218.257 142.365L218.505 142.969L214.883 144.458L213.661 140.738Z" fill="#D3D3D3"/>
</g>
<defs>
<filter id="filter0_d_1_837" x="0" y="0" width="229" height="211.347" filterUnits="userSpaceOnUse" color-interpolation-filters="sRGB">
<feFlood flood-opacity="0" result="BackgroundImageFix"/>
<feColorMatrix in="SourceAlpha" type="matrix" values="0 0 0 0 0 0 0 0 0 0 0 0 0 0 0 0 0 0 127 0" result="hardAlpha"/>
<feOffset dy="4"/>
<feGaussianBlur stdDeviation="2"/>
<feComposite in2="hardAlpha" operator="out"/>
<feColorMatrix type="matrix" values="0 0 0 0 0 0 0 0 0 0 0 0 0 0 0 0 0 0 0.25 0"/>
<feBlend mode="normal" in2="BackgroundImageFix" result="effect1_dropShadow_1_837"/>
<feBlend mode="normal" in="SourceGraphic" in2="effect1_dropShadow_1_837" result="shape"/>
</filter>
<clipPath id="clip0_1_837">
<rect width="221" height="203.347" fill="white" transform="translate(4)"/>
</clipPath>
</defs>
</svg>
