<svg width="31" height="31" viewBox="0 0 31 31" fill="none" xmlns="http://www.w3.org/2000/svg">
<path d="M0 29H3.38333V19H0V29ZM15.75 30.6666L10.8667 29.6L5.98333 28.5333C5.70959 28.4706 5.46445 28.3187 5.28645 28.1015C5.10845 27.8842 5.00769 27.614 5 27.3333V20.6666C4.99638 20.3798 5.09707 20.1014 5.28333 19.8833C5.46264 19.6545 5.71606 19.4954 6 19.4333L13.9667 18.45L21.95 17.3333L22.2 18.25L22.45 19.1666C22.4506 19.479 22.3635 19.7852 22.1984 20.0505C22.0334 20.3157 21.7972 20.5292 21.5167 20.6666L18.1833 21.5L14.85 22.3333L17.55 23.4166L20.25 24.5L24.05 23.4333L27.75 22.3333C27.9105 22.2851 28.0792 22.2706 28.2455 22.2907C28.4119 22.3108 28.5723 22.365 28.7167 22.45C28.8646 22.533 28.9941 22.6452 29.0972 22.7799C29.2004 22.9146 29.275 23.0688 29.3167 23.2333L29.6333 24.5L29.9667 25.7833C30.0066 25.9409 30.0149 26.1048 29.9912 26.2657C29.9675 26.4265 29.9123 26.5811 29.8286 26.7205C29.745 26.8599 29.6346 26.9814 29.5038 27.0779C29.3731 27.1745 29.2245 27.2443 29.0667 27.2833L23.0167 28.95L16.9667 30.6166C16.7708 30.6688 16.5693 30.6968 16.3667 30.7C16.1605 30.7135 15.9535 30.7024 15.75 30.6666ZM25.0333 8.16663L19.2 4.41663L13.3667 0.666626V15.6666L19.2 11.9166L25.0333 8.16663Z" fill="#F7D900"/>
</svg>
