<svg width="738" height="478" viewBox="0 0 738 478" fill="none" xmlns="http://www.w3.org/2000/svg">
<g clip-path="url(#clip0_1_150)">
<path d="M557.208 380.158C555.188 366.554 554.655 352.77 555.616 339.05L557.208 316.344C548.439 333.79 550.421 356.754 557.208 380.158V380.158Z" fill="#CACACA"/>
<path d="M564.045 383.957C563.073 375.839 562.816 367.651 563.279 359.488L564.045 345.972C559.826 356.357 560.78 370.025 564.045 383.957Z" fill="#CACACA"/>
<path d="M594.436 400.672V408.269C594.433 408.873 594.192 409.45 593.765 409.877C593.339 410.304 592.761 410.545 592.157 410.548H588.359C588.259 410.548 588.16 410.567 588.068 410.605C587.975 410.643 587.891 410.699 587.821 410.77C587.75 410.84 587.694 410.924 587.656 411.017C587.618 411.109 587.599 411.208 587.599 411.308V473.603C587.596 474.207 587.355 474.785 586.928 475.211C586.501 475.638 585.923 475.879 585.32 475.882H538.978C538.374 475.882 537.794 475.642 537.367 475.214C536.94 474.787 536.7 474.208 536.699 473.603V411.308C536.698 411.107 536.618 410.914 536.476 410.771C536.334 410.629 536.141 410.549 535.939 410.548H531.381C530.777 410.548 530.197 410.307 529.77 409.88C529.343 409.453 529.103 408.873 529.102 408.269V400.672C529.102 400.373 529.16 400.076 529.275 399.799C529.389 399.523 529.557 399.271 529.769 399.06C529.98 398.848 530.232 398.68 530.508 398.566C530.785 398.451 531.082 398.393 531.381 398.393H592.157C592.761 398.395 593.34 398.635 593.767 399.062C594.194 399.489 594.434 400.068 594.436 400.672Z" fill="#F2F2F2"/>
<path d="M587.667 412.143H536.768V414.423H587.667V412.143Z" fill="#E6E6E6"/>
<path d="M587.599 445.68C570.567 452.729 553.349 452.806 535.939 445.68V429.624C552.699 423.995 570.839 423.995 587.599 429.624V445.68Z" fill="#E6E6E6"/>
<path d="M342.99 190.215C358.261 190.215 370.64 177.835 370.64 162.565C370.64 147.294 358.261 134.915 342.99 134.915C327.72 134.915 315.34 147.294 315.34 162.565C315.34 177.835 327.72 190.215 342.99 190.215Z" fill="#2F2E41"/>
<path d="M350.694 135.676C355.479 135.677 360.182 136.919 364.343 139.281C368.505 141.644 371.982 145.046 374.435 149.155C376.887 153.263 378.232 157.938 378.337 162.722C378.442 167.506 377.304 172.236 375.034 176.448C377.431 173.449 379.177 169.983 380.161 166.272C381.145 162.56 381.345 158.685 380.748 154.892C380.151 151.099 378.77 147.472 376.694 144.242C374.618 141.013 371.892 138.251 368.689 136.133C365.487 134.015 361.878 132.587 358.094 131.941C354.309 131.294 350.431 131.444 346.707 132.379C342.983 133.314 339.495 135.015 336.465 137.373C333.435 139.73 330.929 142.694 329.107 146.073C331.692 142.828 334.975 140.208 338.712 138.408C342.45 136.608 346.545 135.674 350.694 135.676Z" fill="#2F2E41"/>
<path d="M291.322 162.506C336.18 162.506 372.544 126.142 372.544 81.2847C372.544 36.4273 336.18 0.0632324 291.322 0.0632324C246.465 0.0632324 210.101 36.4273 210.101 81.2847C210.101 126.142 246.465 162.506 291.322 162.506Z" fill="#2F2E41"/>
<path d="M227.577 30.8907C241.572 15.1512 261.135 5.46491 282.137 3.87598C303.138 2.28705 323.936 8.91985 340.14 22.3745C339.475 21.7431 338.818 21.1067 338.128 20.4931C322.027 6.19199 300.906 -1.12945 279.408 0.138617C257.91 1.40669 237.796 11.1604 223.488 27.2553C209.179 43.3502 201.849 64.4685 203.108 85.9669C204.367 107.465 214.112 127.584 230.2 141.899C230.891 142.512 231.6 143.09 232.304 143.676C217.044 129.16 208.021 109.282 207.139 88.239C206.257 67.1959 213.585 46.6331 227.577 30.8907Z" fill="#2F2E41"/>
<path d="M290.634 161.818C319.526 161.818 342.946 138.397 342.946 109.506C342.946 80.6145 319.526 57.1936 290.634 57.1936C261.743 57.1936 238.322 80.6145 238.322 109.506C238.322 138.397 261.743 161.818 290.634 161.818Z" fill="#FFB8B8"/>
<path d="M317.357 176.019L261.376 178.536C261.376 178.536 266.049 207.486 235.763 210.24C205.477 212.993 177.944 204.733 166.931 225.383C155.918 246.032 160.665 319.56 160.665 319.56C160.665 319.56 181.314 393.898 197.834 404.911C214.354 415.924 358.9 400.781 358.9 400.781L419.394 324.398L417.345 265.491C416.275 234.73 388.19 211.635 357.941 217.328C357.347 217.439 356.749 217.56 356.147 217.689C356.147 217.689 349.502 212.722 331.269 203.606C320.119 198.031 317.357 176.019 317.357 176.019Z" fill="#CACACA"/>
<path d="M195.84 208.863C195.84 208.863 209.146 233.005 203.639 267.421C198.133 301.837 221.237 374.625 221.237 374.625L237.756 370.495C237.756 370.495 226.743 298.91 229.497 282.391C232.25 265.871 233.01 217.123 219.243 208.863C205.477 200.603 195.84 208.863 195.84 208.863Z" fill="#2F2E41"/>
<path d="M355.178 221.521L360.965 373.937L371.978 380.82C371.978 380.82 387.809 213.559 379.549 213.559H362.743C361.748 213.559 360.763 213.755 359.844 214.135C358.925 214.516 358.09 215.074 357.387 215.777C356.684 216.481 356.126 217.316 355.745 218.235C355.364 219.154 355.168 220.139 355.168 221.133C355.168 221.263 355.172 221.392 355.178 221.521Z" fill="#2F2E41"/>
<path d="M228.808 371.184C232.609 371.184 235.691 368.102 235.691 364.3C235.691 360.499 232.609 357.417 228.808 357.417C225.007 357.417 221.925 360.499 221.925 364.3C221.925 368.102 225.007 371.184 228.808 371.184Z" fill="#F7D900"/>
<path d="M366.472 378.067C370.273 378.067 373.355 374.985 373.355 371.183C373.355 367.382 370.273 364.3 366.472 364.3C362.67 364.3 359.588 367.382 359.588 371.183C359.588 374.985 362.67 378.067 366.472 378.067Z" fill="#F7D900"/>
<path d="M245.894 44.115V96.4272H258.008L273.427 79.9075L271.362 96.4272H324.912L321.608 79.9075L328.216 96.4272H336.751V44.115H245.894Z" fill="#2F2E41"/>
<path d="M237.634 106.064C239.915 106.064 241.764 102.674 241.764 98.4926C241.764 94.311 239.915 90.9211 237.634 90.9211C235.353 90.9211 233.504 94.311 233.504 98.4926C233.504 102.674 235.353 106.064 237.634 106.064Z" fill="#FFB8B8"/>
<path d="M343.635 106.064C345.916 106.064 347.765 102.674 347.765 98.4926C347.765 94.311 345.916 90.9211 343.635 90.9211C341.354 90.9211 339.505 94.311 339.505 98.4926C339.505 102.674 341.354 106.064 343.635 106.064Z" fill="#FFB8B8"/>
<path d="M458.215 462.237V466.848C458.217 468.114 457.983 469.369 457.523 470.548C457.319 471.073 457.073 471.582 456.786 472.067C455.881 473.587 454.596 474.845 453.058 475.719C451.52 476.593 449.781 477.052 448.012 477.051H108.768C106.999 477.052 105.26 476.593 103.722 475.719C102.183 474.845 100.899 473.587 99.9932 472.067C99.7068 471.582 99.4603 471.073 99.2563 470.548C98.7969 469.369 98.5624 468.114 98.565 466.848V462.237C98.5646 460.897 98.8281 459.571 99.3403 458.333C99.8526 457.095 100.604 455.971 101.551 455.023C102.497 454.076 103.622 453.324 104.859 452.811C106.096 452.298 107.423 452.034 108.762 452.034H128.322V449.884C128.322 449.828 128.333 449.773 128.354 449.721C128.376 449.67 128.407 449.623 128.446 449.583C128.486 449.544 128.532 449.513 128.584 449.491C128.635 449.47 128.691 449.459 128.746 449.458H138.951C139.063 449.458 139.171 449.503 139.251 449.582C139.331 449.662 139.376 449.77 139.376 449.883V452.034H145.75V449.884C145.75 449.828 145.761 449.773 145.782 449.721C145.803 449.67 145.834 449.623 145.874 449.583C145.913 449.544 145.96 449.513 146.011 449.491C146.063 449.47 146.118 449.459 146.174 449.458H156.378C156.491 449.458 156.599 449.503 156.679 449.582C156.758 449.662 156.803 449.77 156.804 449.883V452.034H163.185V449.884C163.185 449.828 163.196 449.773 163.217 449.721C163.238 449.67 163.27 449.623 163.309 449.583C163.348 449.544 163.395 449.513 163.447 449.491C163.498 449.47 163.553 449.459 163.609 449.459H173.813C173.926 449.458 174.034 449.503 174.114 449.582C174.194 449.662 174.238 449.77 174.239 449.883V452.034H180.613V449.884C180.612 449.828 180.623 449.773 180.645 449.721C180.666 449.67 180.697 449.623 180.736 449.583C180.776 449.544 180.823 449.513 180.874 449.491C180.926 449.47 180.981 449.459 181.037 449.459H191.241C191.353 449.458 191.461 449.503 191.541 449.582C191.621 449.662 191.666 449.77 191.666 449.883V452.034H198.04V449.884C198.04 449.828 198.051 449.773 198.072 449.721C198.093 449.67 198.125 449.623 198.164 449.583C198.203 449.544 198.25 449.513 198.302 449.491C198.353 449.47 198.408 449.459 198.464 449.459H208.668C208.781 449.458 208.889 449.503 208.969 449.582C209.049 449.662 209.094 449.77 209.094 449.883V452.034H215.475V449.884C215.475 449.828 215.486 449.773 215.507 449.721C215.528 449.67 215.56 449.623 215.599 449.583C215.638 449.544 215.685 449.513 215.737 449.491C215.788 449.47 215.843 449.459 215.899 449.459H226.103C226.216 449.458 226.324 449.503 226.404 449.582C226.484 449.662 226.529 449.77 226.529 449.883V452.034H232.903V449.884C232.903 449.828 232.913 449.773 232.935 449.721C232.956 449.67 232.987 449.623 233.027 449.583C233.066 449.544 233.113 449.513 233.164 449.491C233.216 449.47 233.271 449.459 233.327 449.459H313.249C313.304 449.458 313.36 449.469 313.411 449.491C313.463 449.512 313.51 449.543 313.549 449.582C313.589 449.622 313.62 449.669 313.641 449.72C313.663 449.772 313.674 449.827 313.674 449.883V452.034H320.056V449.884C320.055 449.828 320.066 449.773 320.088 449.721C320.109 449.67 320.14 449.623 320.179 449.584C320.219 449.544 320.266 449.513 320.317 449.491C320.369 449.47 320.424 449.459 320.48 449.459H330.684C330.796 449.46 330.904 449.505 330.983 449.584C331.063 449.664 331.108 449.772 331.109 449.884V452.034H337.483V449.884C337.483 449.828 337.494 449.773 337.515 449.721C337.536 449.67 337.568 449.623 337.607 449.584C337.646 449.544 337.693 449.513 337.745 449.491C337.796 449.47 337.851 449.459 337.907 449.459H348.111C348.167 449.458 348.222 449.469 348.274 449.491C348.325 449.512 348.372 449.543 348.412 449.583C348.451 449.622 348.483 449.669 348.504 449.72C348.526 449.772 348.537 449.827 348.537 449.883V452.034H354.911V449.884C354.91 449.828 354.921 449.773 354.943 449.721C354.964 449.67 354.995 449.623 355.034 449.584C355.074 449.544 355.121 449.513 355.172 449.491C355.224 449.47 355.279 449.459 355.335 449.459H365.539C365.595 449.459 365.65 449.469 365.701 449.491C365.753 449.512 365.8 449.543 365.839 449.583C365.879 449.622 365.91 449.669 365.932 449.72C365.953 449.772 365.964 449.827 365.964 449.883V452.034H372.346V449.884C372.346 449.828 372.356 449.773 372.378 449.721C372.399 449.67 372.43 449.623 372.47 449.584C372.509 449.544 372.556 449.513 372.607 449.491C372.659 449.47 372.714 449.459 372.77 449.459H382.974C383.086 449.46 383.192 449.506 383.27 449.585C383.349 449.665 383.392 449.772 383.392 449.884V452.034H389.773V449.884C389.773 449.828 389.784 449.773 389.805 449.721C389.826 449.67 389.858 449.623 389.897 449.584C389.936 449.544 389.983 449.513 390.035 449.491C390.086 449.47 390.141 449.459 390.197 449.459H400.401C400.457 449.459 400.512 449.469 400.564 449.491C400.616 449.512 400.662 449.543 400.702 449.583C400.741 449.622 400.773 449.669 400.794 449.72C400.816 449.772 400.827 449.827 400.827 449.883V452.034H407.201V449.884C407.201 449.828 407.211 449.773 407.233 449.721C407.254 449.67 407.285 449.623 407.325 449.584C407.364 449.544 407.411 449.513 407.462 449.491C407.514 449.47 407.569 449.459 407.625 449.459H417.829C417.885 449.459 417.94 449.469 417.991 449.491C418.043 449.512 418.09 449.543 418.129 449.583C418.169 449.622 418.2 449.669 418.222 449.72C418.243 449.772 418.254 449.827 418.254 449.883V452.034H448.012C450.717 452.033 453.312 453.107 455.225 455.02C457.138 456.932 458.214 459.526 458.215 462.231L458.215 462.237Z" fill="#3F3D56"/>
<path d="M737.708 475.862H0V477.381H737.708V475.862Z" fill="#3F3D56"/>
<path d="M430.897 268.031H120.147C119.024 268.031 117.911 268.252 116.874 268.682C115.836 269.112 114.893 269.742 114.099 270.536C113.305 271.331 112.675 272.274 112.245 273.311C111.815 274.349 111.594 275.461 111.594 276.584V449.729C111.594 451.997 112.495 454.173 114.099 455.777C115.703 457.381 117.878 458.282 120.147 458.282H430.897C433.166 458.282 435.341 457.381 436.945 455.777C438.549 454.173 439.451 451.997 439.451 449.729V276.584C439.451 274.316 438.549 272.14 436.945 270.536C435.341 268.932 433.166 268.031 430.897 268.031Z" fill="#3F3D56"/>
<path d="M275.771 347.473C286.261 347.473 294.764 338.969 294.764 328.48C294.764 317.991 286.261 309.488 275.771 309.488C265.282 309.488 256.779 317.991 256.779 328.48C256.779 338.969 265.282 347.473 275.771 347.473Z" fill="#F7D900"/>
<path d="M393.344 203.006L489.223 106.37H534.488V104.851H488.589L488.366 105.076L392.264 201.938L393.344 203.006Z" fill="#3F3D56"/>
<path d="M700.863 66.6958H589.776V76.5946H700.863V66.6958Z" fill="#F7D900"/>
<path d="M576.238 82.8537H552.721V59.3368H576.238V82.8537ZM554.241 81.3343H574.718V60.8562H554.241L554.241 81.3343Z" fill="#3F3D56"/>
<path d="M700.863 99.6918H589.776V109.591H700.863V99.6918Z" fill="#F7D900"/>
<path d="M576.238 115.849H552.721V92.3329H576.238V115.849ZM554.241 114.33H574.718V93.8523H554.241L554.241 114.33Z" fill="#3F3D56"/>
<path d="M700.863 132.688H589.776V142.586H700.863V132.688Z" fill="#F7D900"/>
<path d="M576.238 148.845H552.721V125.329H576.238V148.845ZM554.241 147.326H574.718V126.848H554.241L554.241 147.326Z" fill="#3F3D56"/>
</g>
<defs>
<clipPath id="clip0_1_150">
<rect width="737.708" height="477.381" fill="white"/>
</clipPath>
</defs>
</svg>
